<svg width="40" height="40" viewBox="0 0 40 40" fill="none" xmlns="http://www.w3.org/2000/svg">
<path d="M20 40C31.046 40 40 31.05 40 20C40 8.95 31.046 0 20 0C8.954 0 0 8.95 0 20C0 31.05 8.954 40 20 40Z" fill="#E6F7FF"/>
<g clip-path="url(#clip0_51_50)">
<path opacity="0.927" fill-rule="evenodd" clip-rule="evenodd" d="M18.5781 5.89062C19.0156 5.89062 19.4531 5.89062 19.8906 5.89062C24.5062 7.79471 29.1728 9.61762 33.8906 11.3594C33.8906 11.724 33.8906 12.0885 33.8906 12.4531C29.4393 14.1437 24.9914 15.8573 20.5469 17.5938C19.9141 17.8451 19.2579 17.9544 18.5781 17.9219C18.7286 16.4858 19.1661 15.1369 19.8906 13.875C19.1615 13.4375 18.4323 13 17.7031 12.5625C17.4115 12.125 17.4115 11.6875 17.7031 11.25C18.5048 10.9225 19.234 10.485 19.8906 9.9375C19.1661 8.67562 18.7286 7.32667 18.5781 5.89062ZM20.3281 7.85938C23.4437 8.82398 26.5791 9.95419 29.7344 11.25C28.9355 11.3591 28.1336 11.3955 27.3281 11.3594C27.3281 11.724 27.3281 12.0885 27.3281 12.4531C28.1336 12.417 28.9355 12.4534 29.7344 12.5625C26.5989 13.8053 23.4635 14.972 20.3281 16.0625C20.8011 14.936 21.2751 13.8058 21.75 12.6719C22.4923 12.4628 23.258 12.3899 24.0469 12.4531C24.0469 12.0885 24.0469 11.724 24.0469 11.3594C23.3141 11.3955 22.5849 11.359 21.8594 11.25C21.3236 10.1105 20.8132 8.98027 20.3281 7.85938ZM20.1094 11.3594C20.6339 11.6618 20.6704 12.0263 20.2187 12.4531C19.9443 12.2977 19.6891 12.1154 19.4531 11.9063C19.6873 11.7199 19.9061 11.5376 20.1094 11.3594Z" fill="#1990FF"/>
<path opacity="0.915" fill-rule="evenodd" clip-rule="evenodd" d="M11.1406 11.3594C12.8906 11.3594 14.6406 11.3594 16.3906 11.3594C16.3906 11.724 16.3906 12.0885 16.3906 12.4531C14.7001 12.385 13.023 12.4944 11.3594 12.7812C9.63972 13.7079 9.01993 15.1297 9.5 17.0469C9.92149 18.1248 10.6871 18.8175 11.7969 19.125C16.974 19.1979 22.151 19.2708 27.3281 19.3437C30.0723 20.4195 31.1298 22.4248 30.5 25.3594C29.9474 26.7869 28.9631 27.7713 27.5469 28.3125C23.6101 28.4219 19.6726 28.4584 15.7344 28.4219C15.7344 28.0572 15.7344 27.6927 15.7344 27.3281C19.6094 27.4221 23.4739 27.3127 27.3281 27C28.9924 26.0406 29.6123 24.6187 29.1875 22.7344C28.766 21.6564 28.0003 20.9637 26.8906 20.6562C21.7135 20.5833 16.5365 20.5104 11.3594 20.4375C8.61505 19.3617 7.55777 17.3565 8.1875 14.4219C8.78104 12.9903 9.76541 11.9695 11.1406 11.3594Z" fill="#188FFF"/>
<path opacity="0.952" fill-rule="evenodd" clip-rule="evenodd" d="M25.1406 11.3594C25.5052 11.3594 25.8698 11.3594 26.2344 11.3594C26.2344 11.724 26.2344 12.0885 26.2344 12.4531C25.8698 12.4531 25.5052 12.4531 25.1406 12.4531C25.1406 12.0885 25.1406 11.724 25.1406 11.3594Z" fill="#1890FF"/>
<path opacity="0.933" fill-rule="evenodd" clip-rule="evenodd" d="M11.1406 33.8906C10.5573 33.8906 9.97397 33.8906 9.39062 33.8906C9.18113 33.5708 8.92591 33.2792 8.625 33.0156C8.3322 32.0671 8.04054 31.1193 7.75 30.1719C7.01993 29.4338 6.40014 28.6317 5.89062 27.7656C5.89062 26.7448 5.89062 25.724 5.89062 24.7031C7.11123 22.2709 9.07998 21.3594 11.7969 21.9688C14.2583 23.1375 15.1698 25.0697 14.5312 27.7656C14.1085 28.684 13.5251 29.4861 12.7812 30.1719C12.5919 31.0869 12.3002 31.9619 11.9062 32.7969C11.6881 33.1957 11.4329 33.5603 11.1406 33.8906ZM9.17187 23.1719C12.2677 22.8769 13.6166 24.2623 13.2187 27.3281C12.3945 28.3355 11.7018 29.4292 11.1406 30.6094C10.6548 29.2429 10.9101 28.0763 11.9062 27.1094C12.04 26.3246 11.7119 26.0694 10.9219 26.3438C10.4844 27.0729 10.0469 27.0729 9.60937 26.3438C8.81938 26.0694 8.49126 26.3246 8.625 27.1094C9.62119 28.0763 9.8764 29.2429 9.39062 30.6094C8.82949 29.4292 8.13678 28.3355 7.3125 27.3281C6.87417 25.4361 7.49396 24.0506 9.17187 23.1719ZM9.82812 31.7031C10.1198 31.7031 10.4115 31.7031 10.7031 31.7031C10.7031 31.9947 10.7031 32.2865 10.7031 32.5781C10.4115 32.5781 10.1198 32.5781 9.82812 32.5781C9.82812 32.2865 9.82812 31.9947 9.82812 31.7031Z" fill="#1890FF"/>
</g>
<defs>
<clipPath id="clip0_51_50">
<rect width="28" height="28" fill="white" transform="translate(6 6)"/>
</clipPath>
</defs>
</svg>
