<svg width="25" height="25" viewBox="0 0 25 25" fill="none" xmlns="http://www.w3.org/2000/svg">
<path d="M8.29644 7.598V5.828C8.97172 5.5921 9.54087 5.12793 9.90328 4.51752C10.2657 3.90711 10.398 3.18976 10.2769 2.49227C10.1558 1.79477 9.78901 1.16204 9.24139 0.705895C8.69378 0.249753 8.00059 -0.000427246 7.28434 -0.000427246C6.5681 -0.000427246 5.87491 0.249753 5.32729 0.705895C4.77968 1.16204 4.4129 1.79477 4.29178 2.49227C4.17066 3.18976 4.303 3.90711 4.66541 4.51752C5.02782 5.12793 5.59696 5.5921 6.27225 5.828V8.012C6.2723 8.27719 6.37897 8.53151 6.56879 8.719L9.30854 11.426V23.012C9.30854 23.2772 9.41517 23.5316 9.60497 23.7191C9.79478 23.9066 10.0522 24.012 10.3206 24.012C10.5891 24.012 10.8465 23.9066 11.0363 23.7191C11.2261 23.5316 11.3327 23.2772 11.3327 23.012V11.012C11.3327 10.7468 11.226 10.4925 11.0362 10.305L8.29644 7.598Z" fill="#722ED1"/>
<path d="M4.2481 16.598V14.828C4.92339 14.5921 5.49253 14.1279 5.85494 13.5175C6.21735 12.9071 6.34969 12.1898 6.22857 11.4923C6.10745 10.7948 5.74067 10.162 5.19305 9.70589C4.64544 9.24975 3.95225 8.99957 3.236 8.99957C2.51976 8.99957 1.82657 9.24975 1.27895 9.70589C0.731339 10.162 0.364559 10.7948 0.24344 11.4923C0.122321 12.1898 0.254661 12.9071 0.61707 13.5175C0.979479 14.1279 1.54862 14.5921 2.22391 14.828V17.012C2.22396 17.2772 2.33063 17.5315 2.52045 17.719L5.2602 20.426V23.012C5.2602 23.2772 5.36683 23.5316 5.55663 23.7191C5.74644 23.9066 6.00387 24.012 6.27229 24.012C6.54072 24.012 6.79815 23.9066 6.98795 23.7191C7.17776 23.5316 7.28439 23.2772 7.28439 23.012V20.012C7.28433 19.7468 7.17766 19.4925 6.98785 19.305L4.2481 16.598Z" fill="#722ED1"/>
<path d="M18.4174 8.012V5.828C19.0927 5.5921 19.6618 5.12793 20.0243 4.51752C20.3867 3.90711 20.519 3.18976 20.3979 2.49227C20.2768 1.79477 19.91 1.16204 19.3624 0.705895C18.8148 0.249753 18.1216 -0.000427246 17.4053 -0.000427246C16.6891 -0.000427246 15.9959 0.249753 15.4483 0.705895C14.9007 1.16204 14.5339 1.79477 14.4128 2.49227C14.2916 3.18976 14.424 3.90711 14.7864 4.51752C15.1488 5.12793 15.7179 5.5921 16.3932 5.828V7.598L13.6535 10.305C13.4637 10.4925 13.357 10.7468 13.3569 11.012V23.012C13.3569 23.2772 13.4636 23.5316 13.6534 23.7191C13.8432 23.9066 14.1006 24.012 14.369 24.012C14.6375 24.012 14.8949 23.9066 15.0847 23.7191C15.2745 23.5316 15.3811 23.2772 15.3811 23.012V11.426L18.1209 8.719C18.3107 8.53151 18.4174 8.27719 18.4174 8.012Z" fill="#722ED1"/>
<path d="M24.49 12.012C24.4923 11.4615 24.3412 10.9209 24.0533 10.4496C23.7655 9.97824 23.3519 9.59424 22.8578 9.33965C22.3638 9.08506 21.8084 8.96968 21.2525 9.00617C20.6965 9.04265 20.1614 9.22959 19.7058 9.5465C19.2502 9.86341 18.8917 10.2981 18.6694 10.8029C18.4472 11.3077 18.3698 11.8633 18.4458 12.4086C18.5217 12.954 18.7481 13.4682 19.1001 13.895C19.4522 14.3217 19.9162 14.6445 20.4416 14.828V16.598L17.7018 19.305C17.512 19.4925 17.4053 19.7468 17.4053 20.012V23.012C17.4053 23.2772 17.5119 23.5316 17.7017 23.7191C17.8915 23.9066 18.1489 24.012 18.4174 24.012C18.6858 24.012 18.9432 23.9066 19.133 23.7191C19.3228 23.5316 19.4295 23.2772 19.4295 23.012V20.426L22.1692 17.719C22.359 17.5315 22.4657 17.2772 22.4658 17.012V14.828C23.0557 14.6219 23.5668 14.2408 23.9292 13.7367C24.2915 13.2326 24.4874 12.6303 24.49 12.012Z" fill="#722ED1"/>
</svg>
