<svg xmlns="http://www.w3.org/2000/svg" version="1.1" xmlns:xlink="http://www.w3.org/1999/xlink" xmlns:svgjs="http://svgjs.dev/svgjs" width="1000" height="1000" viewBox="0 0 1000 1000"><rect width="1000" height="1000" fill="#ffffff"></rect><g transform="matrix(0.7,0,0,0.7,149.57576751199394,402.10603644079976)"><svg viewBox="0 0 396 111" data-background-color="#398378" preserveAspectRatio="xMidYMid meet" height="280" width="1000" xmlns="http://www.w3.org/2000/svg" xmlns:xlink="http://www.w3.org/1999/xlink"><g id="tight-bounds" transform="matrix(1,0,0,1,0.2399945253112037,-0.0600465657741438)"><svg viewBox="0 0 395.52 111.1200931315483" height="111.1200931315483" width="395.52"><g><svg viewBox="0 0 395.52 111.1200931315483" height="111.1200931315483" width="395.52"><g><svg viewBox="0 0 395.52 111.1200931315483" height="111.1200931315483" width="395.52"><g id="textblocktransform"><svg viewBox="0 0 395.52 111.1200931315483" height="111.1200931315483" width="395.52" id="textblock"><g><svg viewBox="0 0 395.52 111.1200931315483" height="111.1200931315483" width="395.52"><g transform="matrix(1,0,0,1,0,0)"><svg width="395.52" viewBox="3.700000047683716 -35.599998474121094 128.83999633789062 36.19999694824219" height="111.1200931315483" data-palette-color="#ffffff"><path d="M7.9 0L3.7 0 3.7-35 7.9-35 26.55-6.95 26.55-35 30.75-35 30.75 0 26.55 0 7.9-28.05 7.9 0ZM54.05 0.6L54.05 0.6Q48.9 0.6 45.02-1.68 41.15-3.95 38.97-8.05 36.8-12.15 36.8-17.5L36.8-17.5Q36.8-22.85 38.97-26.93 41.15-31 45.02-33.3 48.9-35.6 54.05-35.6L54.05-35.6Q59.25-35.6 63.12-33.3 67-31 69.15-26.93 71.3-22.85 71.3-17.5L71.3-17.5Q71.3-12.15 69.15-8.05 67-3.95 63.12-1.68 59.25 0.6 54.05 0.6ZM54.05-3.1L54.05-3.1Q57.9-3.1 60.82-4.83 63.75-6.55 65.37-9.78 67-13 67-17.5L67-17.5Q67-22 65.37-25.2 63.75-28.4 60.82-30.13 57.9-31.85 54.05-31.85L54.05-31.85Q50.2-31.85 47.27-30.13 44.35-28.4 42.72-25.2 41.1-22 41.1-17.5L41.1-17.5Q41.1-13 42.72-9.78 44.35-6.55 47.27-4.83 50.2-3.1 54.05-3.1ZM91.45 0L86.55 0 73.4-35 77.95-35 89-4.45 100.15-35 104.6-35 91.45 0ZM106.74 0L102.34 0 115.24-35 119.69-35 132.54 0 128.09 0 124.89-9 109.99-9 106.74 0ZM117.44-29.7L111.24-12.4 123.64-12.4 117.44-29.7Z" opacity="1" transform="matrix(1,0,0,1,0,0)" fill="#000000" class="wordmark-text-0" data-fill-palette-color="primary" id="text-0"></path></svg></g></svg></g></svg></g></svg></g></svg></g><defs></defs></svg><rect width="395.52" height="111.1200931315483" fill="none" stroke="none" visibility="hidden"></rect></g></svg></g></svg>